<svg width="129" height="346" viewBox="0 0 129 346" fill="none" xmlns="http://www.w3.org/2000/svg">
<path d="M41.2129 94.1533L63.3272 0L104.875 66.6779L69.6934 136.371L41.2129 94.1533Z" fill="#730EE6"/>
<path d="M75.7249 146.423L108.896 79.7454L120.624 119.283L129 244.262L100.185 304.909L70.0288 285.14L75.7249 146.423Z" fill="#730EE6"/>
<path d="M13.4024 80.0802L49.5894 19.0984L34.5115 92.1425L3.68555 119.953L13.4024 80.0802Z" fill="#8204C3"/>
<path d="M36.187 103.535L0 134.361L5.02597 278.104L36.187 313.956L60.9818 286.815L66.6779 148.434L36.187 103.535Z" fill="#8204C3"/>
<path d="M66.0075 296.198L41.8828 319.652L69.0231 345.452L96.4984 313.956L66.0075 296.198Z" fill="#34046B"/>
</svg>
